<?xml version="1.0" encoding="utf-8"?>
<!-- Generator: Adobe Illustrator 25.3.1, SVG Export Plug-In . SVG Version: 6.00 Build 0)  -->
<svg version="1.1" id="Layer_1" xmlns="http://www.w3.org/2000/svg" xmlns:xlink="http://www.w3.org/1999/xlink" x="0px" y="0px"
	 viewBox="0 0 499.9 418.2" style="enable-background:new 0 0 499.9 418.2;" xml:space="preserve">
<style type="text/css">
	.st0{fill:#262626;}
</style>
<g id="Layer_2_1_">
	<g id="Ebene_1">
		<path class="st0" d="M9.2,211.3c0-56.3,23-108.2,60.2-146.5c6.7-7,13.9-13.5,21.6-19.4C127.3,16.9,171.9,1,218,0.1
			c-2,0-4.1-0.1-6.1-0.1C94.7,0.6,0,96.9,0,211.3c0,117.2,87.3,206.8,207.4,206.8c1.6,0,3.3,0,4.9,0C94.5,416,9.2,327.2,9.2,211.3z"
			/>
		<path class="st0" d="M30.4,211.3c0-56.3,22.9-108.2,60.2-146.5c6.7-7,13.9-13.5,21.6-19.4C148.4,16.9,193,1,239.1,0.1
			c-2,0-4-0.1-6.1-0.1C115.8,0.6,21.1,96.9,21.1,211.3c0,117.2,87.3,206.8,207.4,206.8c1.6,0,3.3,0,4.9,0
			C115.6,416,30.4,327.2,30.4,211.3z"/>
		<path class="st0" d="M51.5,211.3c0-56.3,23-108.2,60.2-146.5c6.7-7,13.9-13.5,21.6-19.4c36.3-28.5,80.8-44.5,127-45.4
			c-2,0-4-0.1-6.1-0.1C137,0.6,42.3,96.9,42.3,211.3c0,117.2,87.4,206.8,207.4,206.8c1.6,0,3.3,0,4.9,0
			C136.8,416,51.5,327.2,51.5,211.3z"/>
		<path class="st0" d="M72.6,211.3c0-56.3,23-108.2,60.2-146.5c6.7-7,13.9-13.5,21.6-19.4c36.3-28.5,80.8-44.5,127-45.4
			c-2,0-4.1-0.1-6.1-0.1C158.1,0.6,63.4,96.9,63.4,211.3c0,117.2,87.3,206.8,207.4,206.8c1.6,0,3.3,0,4.9,0
			C157.9,416,72.6,327.2,72.6,211.3z"/>
		<path class="st0" d="M296.5,410.3c-1.5,0-3.1,0-4.6-0.1c98.3-2.5,170.4-66.6,177-168.4h-9.2c-6.5,100.1-76.4,163.8-172.1,168.2
			c-1.9-0.1-3.8-0.2-5.6-0.4c92.5-6.9,159.5-70,165.8-167.9h-9.2c-6.2,96.2-71,158.8-161.1,167.4c-1.9-0.2-3.8-0.4-5.7-0.7
			c86.9-10.9,148.8-72.8,154.9-166.8h-9.2c-6,92.3-65.8,153.6-150.2,166.1c-2-0.3-3.9-0.6-5.8-1c81.1-14.5,138.2-75.1,144-165.1
			h-9.2C390.4,330,335.5,390,256.9,406c-89.5-19.3-156-101-156.5-199.1c0.5-98.7,59.6-175.5,147.5-194.5
			c77.2,16.9,136.6,80,150.6,160h9.2C393.5,90.8,332,26.8,252.6,11.4c2-0.4,4-0.7,6-1c82.3,13.3,146.4,78.4,161,162h9.2
			C414,87.3,347.8,21.3,263.3,9.7c2-0.3,4-0.5,6-0.7c87.2,9.3,156.2,76.3,171.4,163.4h9.2C434.4,83.8,363.3,16,274,8.6
			c2-0.2,4-0.3,6-0.4c92.1,4.8,166,73.7,181.8,164.3h9.2C455,80.5,379,10.9,284.9,8c2.3-0.1,4.7-0.1,7-0.1
			c96.4,0.5,174.7,71,191,164.6h16.9C484.7,72.1,404.7-0.6,296.5,0C179.2,0.6,84.6,96.9,84.6,211.3c0,117.2,87.3,206.8,207.4,206.8
			c109.9,0,197.2-71.6,207.9-176.4h-19.2C474,346,398.5,410.8,296.5,410.3z"/>
	</g>
</g>
</svg>
